<?xml version="1.0" encoding="UTF-8" standalone="no"?>
<!-- Created with Inkscape (http://www.inkscape.org/) -->

<svg
   width="194.46765mm"
   height="43.901035mm"
   viewBox="0 0 194.46765 43.901035"
   version="1.1"
   id="svg5"
   inkscape:version="1.1.2 (b8e25be8, 2022-02-05)"
   sodipodi:docname="drawing.svg"
   xmlns:inkscape="http://www.inkscape.org/namespaces/inkscape"
   xmlns:sodipodi="http://sodipodi.sourceforge.net/DTD/sodipodi-0.dtd"
   xmlns="http://www.w3.org/2000/svg"
   xmlns:svg="http://www.w3.org/2000/svg">
  <sodipodi:namedview
     id="namedview7"
     pagecolor="#ffffff"
     bordercolor="#666666"
     borderopacity="1.0"
     inkscape:pageshadow="2"
     inkscape:pageopacity="0.0"
     inkscape:pagecheckerboard="0"
     inkscape:document-units="mm"
     showgrid="false"
     width="190mm"
     fit-margin-left="5"
     fit-margin-top="5"
     fit-margin-right="5"
     fit-margin-bottom="5"
     inkscape:zoom="0.55678311"
     inkscape:cx="408.59717"
     inkscape:cy="478.64239"
     inkscape:window-width="1312"
     inkscape:window-height="847"
     inkscape:window-x="0"
     inkscape:window-y="25"
     inkscape:window-maximized="0"
     inkscape:current-layer="layer1" />
  <defs
     id="defs2" />
  <g
     inkscape:label="Layer 1"
     inkscape:groupmode="layer"
     id="layer1"
     transform="translate(1.7186201,1.9921154)">
    <g
       inkscape:label="Layer 1"
       id="layer1-8"
       transform="translate(13.31547,-3.43127)">
      <g
         aria-label="Malachite"
         id="text1419-4-0"
         style="font-size:21.1667px;line-height:1.25;fill:#73d1a0;stroke-width:0.264583" />
      <g
         id="g810"
         transform="matrix(1.5,0,0,1.5,-35.656592,-30.746301)">
        <path
           d="m 62.989162,44.493828 h -3.407839 l -0.254,-5.736176 q -0.105834,-2.05317 -0.105834,-3.661839 0,-1.227669 0.0635,-2.328337 L 57.020152,42.948659 H 53.739314 L 51.32631,32.767476 q 0.127,1.841503 0.127,3.471339 0,1.227668 -0.0635,2.56117 l -0.254001,5.693843 h -3.386672 l 1.100669,-14.668524 h 4.381507 l 2.201337,9.94835 2.05317,-9.94835 h 4.402673 z"
           style="font-weight:bold;font-size:21.1667px;line-height:1.25;font-family:'Fira Sans';-inkscape-font-specification:'Fira Sans, Bold';fill:#569e76;stroke-width:0.264583"
           id="path617" />
        <path
           d="m 73.914487,41.234156 q 0,0.635001 0.169333,0.931335 0.190501,0.296334 0.592668,0.4445 l -0.698501,2.180171 q -1.037169,-0.08467 -1.693336,-0.444501 -0.656168,-0.381001 -1.016002,-1.185335 -1.100668,1.693336 -3.386672,1.693336 -1.672169,0 -2.667004,-0.973668 -0.994835,-0.973669 -0.994835,-2.540005 0,-1.841502 1.354669,-2.815171 1.354668,-0.973668 3.915839,-0.973668 h 1.143002 v -0.486834 q 0,-0.994835 -0.423334,-1.354669 -0.423334,-0.381 -1.481669,-0.381 -0.550334,0 -1.333502,0.169333 -0.783168,0.148167 -1.608669,0.423334 l -0.762002,-2.201337 q 1.058335,-0.402167 2.159004,-0.613834 1.121835,-0.211667 2.074337,-0.211667 2.413003,0 3.534838,0.994835 1.121836,0.994835 1.121836,2.984505 z m -5.058842,1.227669 q 1.143002,0 1.778003,-1.079502 v -1.98967 h -0.825501 q -1.143002,0 -1.714503,0.402167 -0.550334,0.402168 -0.550334,1.248836 0,0.677334 0.338667,1.058335 0.359834,0.359834 0.973668,0.359834 z"
           style="font-weight:bold;font-size:21.1667px;line-height:1.25;font-family:'Fira Sans';-inkscape-font-specification:'Fira Sans, Bold';fill:#569e76;stroke-width:0.264583"
           id="path619" />
        <path
           d="m 79.376819,44.853662 q -1.460502,0 -2.286004,-0.825502 -0.804334,-0.846668 -0.804334,-2.391837 V 28.788136 l 3.344339,-0.359834 v 13.081021 q 0,0.698501 0.5715,0.698501 0.296334,0 0.550335,-0.105833 l 0.656167,2.37067 q -0.910168,0.381001 -2.032003,0.381001 z"
           style="font-weight:bold;font-size:21.1667px;line-height:1.25;font-family:'Fira Sans';-inkscape-font-specification:'Fira Sans, Bold';fill:#569e76;stroke-width:0.264583"
           id="path621" />
        <path
           d="m 91.484502,41.234156 q 0,0.635001 0.169333,0.931335 0.1905,0.296334 0.592668,0.4445 l -0.698501,2.180171 q -1.037169,-0.08467 -1.693336,-0.444501 -0.656168,-0.381001 -1.016002,-1.185335 -1.100668,1.693336 -3.386672,1.693336 -1.672169,0 -2.667004,-0.973668 -0.994835,-0.973669 -0.994835,-2.540005 0,-1.841502 1.354669,-2.815171 1.354668,-0.973668 3.915839,-0.973668 h 1.143002 v -0.486834 q 0,-0.994835 -0.423334,-1.354669 -0.423334,-0.381 -1.481669,-0.381 -0.550334,0 -1.333502,0.169333 -0.783168,0.148167 -1.608669,0.423334 l -0.762002,-2.201337 q 1.058335,-0.402167 2.159004,-0.613834 1.121835,-0.211667 2.074336,-0.211667 2.413004,0 3.534839,0.994835 1.121836,0.994835 1.121836,2.984505 z m -5.058842,1.227669 q 1.143002,0 1.778003,-1.079502 v -1.98967 h -0.825501 q -1.143002,0 -1.714503,0.402167 -0.550334,0.402168 -0.550334,1.248836 0,0.677334 0.338667,1.058335 0.359834,0.359834 0.973668,0.359834 z"
           style="font-weight:bold;font-size:21.1667px;line-height:1.25;font-family:'Fira Sans';-inkscape-font-specification:'Fira Sans, Bold';fill:#569e76;stroke-width:0.264583"
           id="path623" />
        <path
           d="m 99.037374,32.894476 q 1.164166,0 2.095506,0.338667 0.93133,0.338667 1.75683,1.037169 l -1.43933,1.989669 q -1.05834,-0.804334 -2.137839,-0.804334 -1.121835,0 -1.693336,0.825501 -0.571501,0.825501 -0.571501,2.667004 0,1.778003 0.571501,2.518838 0.571501,0.740834 1.651002,0.740834 0.571501,0 1.037173,-0.169333 0.46566,-0.190501 1.12183,-0.592668 l 1.4605,2.074337 q -1.67217,1.333502 -3.788836,1.333502 -1.714503,0 -2.963338,-0.719668 -1.248836,-0.740835 -1.92617,-2.05317 -0.677335,-1.333502 -0.677335,-3.111505 0,-1.778003 0.677335,-3.153838 0.677334,-1.375836 1.92617,-2.137837 1.248835,-0.783168 2.899838,-0.783168 z"
           style="font-weight:bold;font-size:21.1667px;line-height:1.25;font-family:'Fira Sans';-inkscape-font-specification:'Fira Sans, Bold';fill:#569e76;stroke-width:0.264583"
           id="path625" />
        <path
           d="m 110.88048,32.894476 q 1.4605,0 2.286,0.889001 0.8255,0.889002 0.8255,2.497671 v 8.21268 h -3.34434 v -7.641179 q 0,-0.846668 -0.27516,-1.164169 -0.27517,-0.338667 -0.78317,-0.338667 -1.016,0 -1.94734,1.439336 v 7.704679 h -3.34434 V 28.788136 l 3.34434,-0.338667 v 6.011343 q 0.6985,-0.783168 1.48167,-1.164169 0.78317,-0.402167 1.75684,-0.402167 z"
           style="font-weight:bold;font-size:21.1667px;line-height:1.25;font-family:'Fira Sans';-inkscape-font-specification:'Fira Sans, Bold';fill:#569e76;stroke-width:0.264583"
           id="path627" />
        <path
           d="m 119.83763,33.25431 v 11.239518 h -3.34434 V 33.25431 Z m -1.69334,-5.926676 q 0.86784,0 1.41817,0.550334 0.5715,0.529168 0.5715,1.354669 0,0.825501 -0.5715,1.375835 -0.55033,0.529168 -1.41817,0.529168 -0.86783,0 -1.41817,-0.529168 -0.55033,-0.550334 -0.55033,-1.375835 0,-0.825501 0.55033,-1.354669 0.55034,-0.550334 1.41817,-0.550334 z"
           style="font-weight:bold;font-size:21.1667px;line-height:1.25;font-family:'Fira Sans';-inkscape-font-specification:'Fira Sans, Bold';fill:#569e76;stroke-width:0.264583"
           id="path629" />
        <path
           d="m 129.49493,43.96466 q -0.61383,0.423334 -1.43933,0.656168 -0.80434,0.232834 -1.60867,0.232834 -3.68301,-0.02117 -3.68301,-4.064007 v -5.207008 h -1.5875 V 33.25431 h 1.5875 v -2.434171 l 3.34434,-0.381 v 2.815171 h 2.58234 l -0.35984,2.328337 h -2.2225 v 5.164675 q 0,0.783168 0.254,1.121835 0.254,0.338667 0.80434,0.338667 0.5715,0 1.2065,-0.359834 z"
           style="font-weight:bold;font-size:21.1667px;line-height:1.25;font-family:'Fira Sans';-inkscape-font-specification:'Fira Sans, Bold';fill:#569e76;stroke-width:0.264583"
           id="path631" />
        <path
           d="m 140.0601,38.651819 q 0,0.698501 -0.0635,1.206501 h -6.96385 q 0.16934,1.418169 0.80434,1.98967 0.635,0.571501 1.75683,0.571501 0.67734,0 1.31234,-0.232834 0.635,-0.254 1.37583,-0.762001 l 1.37584,1.86267 q -1.9685,1.566336 -4.38151,1.566336 -2.7305,0 -4.191,-1.60867 -1.46051,-1.608669 -1.46051,-4.318006 0,-1.714503 0.61384,-3.069172 0.61383,-1.375835 1.79917,-2.159003 1.18533,-0.804335 2.83633,-0.804335 2.43418,0 3.81001,1.524002 1.37584,1.524003 1.37584,4.233341 z m -3.28084,-0.952502 q -0.0423,-2.582337 -1.82034,-2.582337 -0.86783,0 -1.35467,0.635001 -0.46566,0.635001 -0.5715,2.095503 h 3.74651 z"
           style="font-weight:bold;font-size:21.1667px;line-height:1.25;font-family:'Fira Sans';-inkscape-font-specification:'Fira Sans, Bold';fill:#569e76;stroke-width:0.264583"
           id="path633" />
        <g
           id="page1-1"
           transform="matrix(0.01411111,0,0,0.01411111,17.285668,25.72994)">
          <g
             transform="matrix(0.996264,0,0,0.996264,-14.4567,-66.5884)"
             id="g16426">
            <path
               d="M 0,674.632 177.733,1240.84 504.634,933 326.901,366.79 Z"
               fill="#386a4c"
               id="path16424" />
          </g>
          <g
             transform="matrix(0.996264,0,0,0.996264,-14.4567,-66.5884)"
             id="g16430">
            <path
               d="m 1139.93,1041.42 430.05,129.19 -401.48,437.02 -430.052,-129.18 z"
               fill="#386a4c"
               id="path16428" />
          </g>
          <g
             transform="matrix(0.996264,0,0,0.996264,-14.4567,-66.5884)"
             id="g16434">
            <path
               d="M 813.032,0 1392.25,129.184 1495.4,566.21 916.18,437.026 Z"
               fill="#386a4c"
               id="path16432" />
          </g>
          <g
             transform="matrix(0.996264,0,0,0.996264,-14.4567,-66.5884)"
             id="g16438">
            <path
               d="M 504.634,933 1139.93,1041.42 916.18,437.026 Z"
               fill="#386a4c"
               id="path16436" />
          </g>
          <g
             transform="matrix(0.996264,0,0,0.996264,-14.4567,-66.5884)"
             id="g16442">
            <path
               d="m 177.733,1240.84 560.715,237.61 -199.78,129.18 z"
               fill="#386a4c"
               id="path16440" />
          </g>
          <g
             transform="matrix(0.996264,0,0,0.996264,-14.4567,-66.5884)"
             id="g16446">
            <path
               d="M 813.032,0 326.901,366.79 314.915,129.184 Z"
               fill="#386a4c"
               id="path16444" />
          </g>
          <g
             transform="matrix(0.996264,0,0,0.996264,-14.4567,-66.5884)"
             id="g16450">
            <path
               d="m 1569.98,1170.61 -74.58,-604.4 211.77,108.422 z"
               fill="#386a4c"
               id="path16448" />
          </g>
          <g
             transform="matrix(0.996264,0,0,0.996264,-14.4567,-66.5884)"
             id="g16454">
            <path
               d="m 0,674.632 137.182,495.978 40.551,70.23 z"
               fill="#569e76"
               id="path16452" />
          </g>
          <g
             transform="matrix(0.996264,0,0,0.996264,-14.4567,-66.5884)"
             id="g16458">
            <path
               d="M 177.733,1240.84 504.634,933 738.448,1478.45 Z"
               fill="#569e76"
               id="path16456" />
          </g>
          <g
             transform="matrix(0.996264,0,0,0.996264,-14.4567,-66.5884)"
             id="g16462">
            <path
               d="m 504.634,933 233.814,545.45 401.482,-437.03 z"
               fill="#73d1a0"
               id="path16460" />
          </g>
          <g
             transform="matrix(0.996264,0,0,0.996264,-14.4567,-66.5884)"
             id="g16466">
            <path
               d="M 504.634,933 326.901,366.79 916.18,437.026 Z"
               fill="#73d1a0"
               id="path16464" />
          </g>
          <g
             transform="matrix(0.996264,0,0,0.996264,-14.4567,-66.5884)"
             id="g16470">
            <path
               d="M 1168.5,1607.63 738.448,1478.45 538.668,1607.63 Z"
               fill="#569e76"
               id="path16468" />
          </g>
          <g
             transform="matrix(0.996264,0,0,0.996264,-14.4567,-66.5884)"
             id="g16474">
            <path
               d="m 1168.5,1607.63 360.93,-366.79 40.55,-70.23 z"
               fill="#569e76"
               id="path16472" />
          </g>
          <g
             transform="matrix(0.996264,0,0,0.996264,-14.4567,-66.5884)"
             id="g16478">
            <path
               d="m 1139.93,1041.42 430.05,129.19 -74.58,-604.4 z"
               fill="#569e76"
               id="path16476" />
          </g>
          <g
             transform="matrix(0.996264,0,0,0.996264,-14.4567,-66.5884)"
             id="g16482">
            <path
               d="M 1139.93,1041.42 916.18,437.026 1495.4,566.21 Z"
               fill="#73d1a0"
               id="path16480" />
          </g>
          <g
             transform="matrix(0.996264,0,0,0.996264,-14.4567,-66.5884)"
             id="g16486">
            <path
               d="M 0,674.632 326.901,366.79 314.915,129.184 Z"
               fill="#569e76"
               id="path16484" />
          </g>
          <g
             transform="matrix(0.996264,0,0,0.996264,-14.4567,-66.5884)"
             id="g16490">
            <path
               d="M 813.032,0 326.901,366.79 916.18,437.026 Z"
               fill="#569e76"
               id="path16488" />
          </g>
          <g
             transform="matrix(0.996264,0,0,0.996264,-14.4567,-66.5884)"
             id="g16494">
            <path
               d="m 813.032,0 h 81.101 l 498.117,129.184 z"
               fill="#569e76"
               id="path16492" />
          </g>
          <g
             transform="matrix(0.996264,0,0,0.996264,-14.4567,-66.5884)"
             id="g16498">
            <path
               d="M 1392.25,129.184 1495.4,566.21 1707.17,674.632 Z"
               fill="#569e76"
               id="path16496" />
          </g>
        </g>
      </g>
    </g>
  </g>
</svg>
